<?xml version="1.0" encoding="iso-8859-1"?>
<!-- Uploaded to: SVG Repo, www.svgrepo.com, Generator: SVG Repo Mixer Tools -->
<svg height="800px" width="800px" version="1.1" id="Layer_1" xmlns="http://www.w3.org/2000/svg" xmlns:xlink="http://www.w3.org/1999/xlink" 
	 viewBox="0 0 511.999 511.999" xml:space="preserve">
<path style="fill:#2F9390;" d="M378.485,322.544c-66.438-61.28-104.548-148.261-104.548-238.64V16.626
	c0-22.483-34.614-21.849-34.614,0v67.28c0,90.379-38.11,177.359-104.548,238.64c-6.775,6.243-7.199,16.796-0.955,23.566
	c3.29,3.561,7.763,5.369,12.258,5.369c4.05,0,8.1-1.46,11.303-4.419c46.783-43.14,80.748-97.858,99.25-157.704
	c18.502,59.845,52.467,114.564,99.25,157.704c3.203,2.959,7.252,4.419,11.303,4.419c4.495,0,8.968-1.808,12.258-5.369
	C385.683,339.341,385.261,328.787,378.485,322.544z"/>
<path style="fill:#247F7B;" d="M355.88,347.061c3.203,2.959,7.252,4.419,11.303,4.419c4.495,0,8.968-1.808,12.258-5.369
	c6.243-6.77,5.819-17.323-0.955-23.566c-66.438-61.28-104.548-148.261-104.548-238.64v-67.28c0-11.242-8.653-16.704-17.307-16.625
	v189.356C275.131,249.202,309.096,303.921,355.88,347.061z"/>
<path style="fill:#D9472B;" d="M288.312,444.595c-15.244-32.671-16.34-65.026-3.105-91.106
	c17.666-34.799,38.686-35.477,58.621-33.219c7.068,0.804,11.271,1.179,15.048-0.58c3.768-1.759,6.178-5.207,10.109-11.145
	c11.107-16.758,25.103-32.394,63.126-23.556c28.479,6.618,52.561,28.257,67.805,60.933c27.21,58.338,1.868,127.935-56.47,155.145
	l0,0C385.143,528.267,315.525,502.962,288.312,444.595z"/>
<path style="fill:#E6563A;" d="M68.554,501.065L68.554,501.065c-58.338-27.21-83.68-96.806-56.47-155.139
	c15.244-32.682,39.326-54.32,67.805-60.939c37.991-8.838,52.019,6.791,63.126,23.556c3.93,5.939,6.341,9.386,10.109,11.145
	c3.778,1.764,7.958,1.395,15.048,0.58c19.892-2.264,40.955-1.58,58.621,33.213c13.235,26.086,12.139,58.441-3.105,91.117
	C196.511,502.877,126.964,528.298,68.554,501.065z"/>
</svg>
